<svg width="158" height="50" viewBox="0 0 158 50" fill="none" xmlns="http://www.w3.org/2000/svg">
<g clip-path="url(#clip0_324_218)">
<path d="M156.344 34.1752C156.077 34.1752 155.834 34.3468 155.709 34.7053C154.1 39.2657 151.927 41.9785 150.138 41.9785C149.11 41.9785 148.694 40.8404 148.694 39.0552C148.694 34.5884 151.386 25.1169 152.742 20.7982C152.899 20.2759 153.002 19.8082 153.002 19.4107C153.002 18.1556 152.311 17.5398 150.601 17.5398C148.757 17.5398 146.772 18.2569 144.842 21.6168C144.175 18.6545 142.159 17.3605 139.342 17.3605C136.086 17.3605 132.939 19.4418 130.35 22.8173C127.761 26.1927 124.716 27.2997 122.426 26.754C124.073 22.7472 124.685 19.7537 124.685 17.5319C124.685 14.0474 122.951 11.9426 120.15 11.9426C115.889 11.9426 113.433 15.9807 113.433 20.2292C113.433 23.5111 114.932 26.8865 118.228 28.5235C115.466 34.7287 111.432 40.3415 109.902 40.3415C107.926 40.3415 107.345 30.7297 107.455 23.8541C107.526 19.9095 107.855 19.7069 107.855 18.5142C107.855 17.8282 107.408 17.3605 105.611 17.3605C101.421 17.3605 100.126 20.884 99.9302 24.9298C99.8671 26.4674 99.6248 27.9924 99.2086 29.4746C97.4586 35.6798 93.8494 40.3882 91.4956 40.3882C90.4048 40.3882 90.1071 39.3046 90.1071 37.8858C90.1071 33.4191 92.6256 27.8375 92.6256 23.0745C92.6256 19.5744 91.0802 17.3605 88.1686 17.3605C84.7402 17.3605 80.2048 21.4141 75.9133 29.0068C77.3256 23.1915 77.9063 17.5632 73.7242 17.5632C72.8169 17.5766 71.9262 17.8065 71.1271 18.2335C70.8588 18.3582 70.6345 18.5602 70.4834 18.8132C70.3323 19.0662 70.2613 19.3586 70.2797 19.6523C70.6799 25.8419 65.2582 41.6978 60.119 41.6978C59.1853 41.6978 58.7302 40.6922 58.7302 39.0708C58.7302 34.5962 61.4136 25.1481 62.7631 20.8216C62.9357 20.2604 63.0299 19.7771 63.0299 19.3561C63.0299 18.1712 62.2923 17.5632 60.6211 17.5632C58.7851 17.5632 56.7922 18.2569 54.8699 21.6168C54.1951 18.6545 52.1786 17.3605 49.3619 17.3605C44.7405 17.3605 39.5777 22.217 37.3102 28.5469C34.2737 36.9972 28.1537 45.159 19.9153 45.159C12.4379 45.159 8.49126 38.9772 8.49126 29.2095C8.49126 15.1076 18.9109 3.58591 26.6394 3.58591C30.3349 3.58591 32.1003 5.92454 32.1003 9.51046C32.1003 13.8525 29.6602 15.8715 29.6602 17.5242C29.6602 18.0308 30.0839 18.5298 30.9234 18.5298C34.2816 18.5298 38.236 14.6087 38.236 9.261C38.236 3.91332 33.8657 0 26.1373 0C13.3637 0 0.511719 12.7689 0.511719 29.1316C0.511719 42.15 6.97695 50 18.1577 50C25.7842 50 32.4456 44.1066 36.0391 37.2311C36.4471 42.9295 39.052 45.9074 43.0222 45.9074C46.553 45.9074 49.409 43.8182 51.5902 40.1465C52.4297 43.9897 54.658 45.8684 57.5533 45.8684C60.8722 45.8684 63.6497 43.7792 66.2939 39.8971C66.2546 42.9452 66.9529 45.8138 69.6128 45.8138C70.8682 45.8138 72.3668 45.5254 72.6336 44.4341C75.4346 32.928 82.3548 23.5345 84.4733 23.5345C85.101 23.5345 85.274 24.1347 85.274 24.8441C85.274 27.9701 83.0533 34.3779 83.0533 38.4705C83.0533 42.8905 84.944 45.8138 88.8517 45.8138C93.1825 45.8138 97.584 40.5442 100.519 32.8422C101.437 40.0374 103.422 45.845 106.529 45.845C110.342 45.845 117.113 37.8703 121.217 29.4278C122.826 29.6305 125.242 29.5759 127.565 27.9467C126.576 30.4335 125.996 33.1541 125.996 35.8746C125.996 43.7091 129.762 45.9074 133.002 45.9074C136.525 45.9074 139.381 43.8182 141.57 40.1465C142.292 43.4596 144.136 45.8606 147.525 45.8606C152.829 45.8606 157.435 40.474 157.435 36.0539C157.435 34.8846 156.932 34.1752 156.344 34.1752ZM46.2548 41.5653C44.1128 41.5653 43.2733 39.4216 43.2733 36.2255C43.2733 30.6751 47.0943 21.4063 51.1351 21.4063C52.9005 21.4063 53.5674 23.4721 53.5674 25.9978C53.5674 31.6339 49.9346 41.5653 46.2548 41.5653ZM119.624 25C118.346 23.4877 117.882 21.4297 117.882 19.5978C117.882 17.3371 118.714 15.4272 119.71 15.4272C120.707 15.4272 121.013 16.4016 121.013 17.758C121.013 20.0265 120.197 23.3395 119.624 25ZM136.235 41.5653C134.092 41.5653 133.253 39.102 133.253 36.2255C133.253 30.87 137.074 21.4063 141.146 21.4063C142.912 21.4063 143.539 23.4565 143.539 25.9978C143.539 31.6339 139.969 41.5653 136.235 41.5653Z" fill="white"/>
</g>
<defs>
<clipPath id="clip0_324_218">
<rect width="156.923" height="50" fill="white" transform="translate(0.511719)"/>
</clipPath>
</defs>
</svg>
