<svg width="185" height="50" viewBox="0 0 185 50" fill="none" xmlns="http://www.w3.org/2000/svg">
<g clip-path="url(#clip0_324_196)">
<path d="M35.4903 21.3142H20.016C19.6168 21.3142 19.293 21.6382 19.293 22.0377V29.603C19.293 30.0022 19.6168 30.3272 20.016 30.3272H26.0526V39.7267C26.0526 39.7267 24.6969 40.1886 20.9499 40.1886C16.5288 40.1886 10.353 38.5733 10.353 24.9927C10.353 11.4091 16.7837 9.62193 22.8214 9.62193C28.0475 9.62193 30.2991 10.5422 31.7317 10.9854C32.1817 11.1235 32.5983 10.6752 32.5983 10.2757L34.3244 2.96587C34.3244 2.77914 34.2612 2.55406 34.048 2.40107C33.4661 1.9862 29.9167 0 20.9499 0C10.6196 0 0.0234375 4.39494 0.0234375 25.5223C0.0234375 46.6503 12.1552 49.7988 22.3785 49.7988C30.8431 49.7988 35.9783 46.1813 35.9783 46.1813C36.19 46.0644 36.2127 45.7687 36.2127 45.6331V22.0377C36.2127 21.6382 35.8894 21.3142 35.4903 21.3142Z" fill="white"/>
<path d="M115.237 2.53145C115.237 2.12884 114.918 1.80408 114.518 1.80408H105.806C105.407 1.80408 105.084 2.12884 105.084 2.53145C105.084 2.53337 105.086 19.3691 105.086 19.3691H91.5052V2.53145C91.5052 2.12884 91.1847 1.80408 90.7862 1.80408H82.0739C81.6773 1.80408 81.354 2.12884 81.354 2.53145V48.123C81.354 48.5252 81.6773 48.8528 82.0739 48.8528H90.7862C91.1847 48.8528 91.5052 48.5252 91.5052 48.123V28.622H105.086C105.086 28.622 105.062 48.1215 105.062 48.123C105.062 48.5252 105.386 48.8528 105.784 48.8528H114.517C114.917 48.8528 115.236 48.5252 115.237 48.123V2.53145Z" fill="white"/>
<path d="M51.9312 8.5142C51.9312 5.37693 49.4159 2.84164 46.3128 2.84164C43.2128 2.84164 40.6953 5.37693 40.6953 8.5142C40.6953 11.6482 43.2128 14.1903 46.3128 14.1903C49.4159 14.1903 51.9312 11.6482 51.9312 8.5142Z" fill="white"/>
<path d="M51.3085 38.5058C51.3085 37.3377 51.3085 17.4605 51.3085 17.4605C51.3085 17.0609 50.9858 16.7343 50.5877 16.7343H41.9024C41.5039 16.7343 41.1475 17.1452 41.1475 17.5447C41.1475 17.5447 41.1475 42.869 41.1475 47.6963C41.1475 48.5825 41.6996 48.8457 42.4143 48.8457C42.4143 48.8457 46.1214 48.8457 50.2395 48.8457C51.0978 48.8457 51.3085 48.4245 51.3085 47.6822C51.3085 46.0659 51.3085 39.7347 51.3085 38.5058Z" fill="white"/>
<path d="M148.348 16.8029H139.702C139.306 16.8029 138.983 17.1297 138.983 17.5318V39.8868C138.983 39.8868 136.787 41.4939 133.669 41.4939C130.552 41.4939 129.724 40.0795 129.724 37.027C129.724 33.9706 129.724 17.5318 129.724 17.5318C129.724 17.1297 129.402 16.8029 129.005 16.8029H120.23C119.834 16.8029 119.51 17.1297 119.51 17.5318C119.51 17.5318 119.51 29.4368 119.51 38.5031C119.51 47.5699 124.563 49.788 131.515 49.788C137.218 49.788 141.816 46.6374 141.816 46.6374C141.816 46.6374 142.035 48.2975 142.134 48.4945C142.233 48.6908 142.491 48.8893 142.77 48.8893L148.352 48.8647C148.748 48.8647 149.073 48.5371 149.073 48.1368L149.07 17.5318C149.07 17.1297 148.747 16.8029 148.348 16.8029Z" fill="white"/>
<path d="M168.569 41.4663C165.57 41.3749 163.536 40.0141 163.536 40.0141V25.5762C163.536 25.5762 165.543 24.3462 168.005 24.1264C171.119 23.8474 174.118 24.7879 174.118 32.215C174.118 40.0472 172.765 41.5926 168.569 41.4663ZM171.979 15.7787C167.068 15.7787 163.729 17.9696 163.729 17.9696V2.53145C163.729 2.12884 163.407 1.80408 163.01 1.80408H154.272C153.875 1.80408 153.552 2.12884 153.552 2.53145V48.123C153.552 48.5252 153.875 48.8528 154.273 48.8528C154.274 48.8528 160.334 48.8528 160.335 48.8528C160.608 48.8528 160.815 48.712 160.968 48.4657C161.119 48.2206 161.336 46.3635 161.336 46.3635C161.336 46.3635 164.909 49.7494 171.672 49.7494C179.612 49.7494 184.166 45.7215 184.166 31.6684C184.166 17.6151 176.893 15.7787 171.979 15.7787Z" fill="white"/>
<path d="M76.3491 16.7302H69.8135C69.8135 16.7302 69.8037 8.0978 69.8037 8.09587C69.8037 7.76918 69.6353 7.60583 69.2577 7.60583H60.3512C60.0049 7.60583 59.819 7.75807 59.819 8.0909V17.0133C59.819 17.0133 55.3558 18.0908 55.054 18.1779C54.7534 18.265 54.5322 18.5421 54.5322 18.8728V24.4797C54.5322 24.8829 54.8543 25.2081 55.2525 25.2081H59.819C59.819 25.2081 59.819 31.0724 59.819 38.6966C59.819 48.7153 66.8466 49.6997 71.589 49.6997C73.7555 49.6997 76.3476 49.0037 76.7755 48.8457C77.0344 48.7506 77.1847 48.4828 77.1847 48.192L77.192 42.0242C77.192 41.6221 76.8522 41.2963 76.4696 41.2963C76.089 41.2963 75.1144 41.4512 74.1114 41.4512C70.9012 41.4512 69.8135 39.9586 69.8135 38.0267C69.8135 36.096 69.8132 25.2081 69.8132 25.2081H76.3491C76.7476 25.2081 77.07 24.8829 77.07 24.4797V17.4567C77.07 17.0542 76.7476 16.7302 76.3491 16.7302Z" fill="white"/>
</g>
<defs>
<clipPath id="clip0_324_196">
<rect width="184.356" height="50" fill="white" transform="translate(0.0234375)"/>
</clipPath>
</defs>
</svg>
