<svg width="231" height="50" viewBox="0 0 231 50" fill="none" xmlns="http://www.w3.org/2000/svg">
<g clip-path="url(#clip0_324_204)">
<path d="M93.3989 19.0432H100.942C99.6837 11.0233 92.7399 5.43723 83.7035 5.43723C73.0115 5.43723 64.9883 13.2982 64.9883 26.4637C64.9883 39.394 72.6505 47.4139 83.9221 47.4139C94.038 47.4139 101.28 40.9073 101.28 30.3743V25.467H84.7002V31.2518H94.1174C93.9982 37.0795 90.1075 40.7682 83.9618 40.7682C77.1207 40.7682 72.432 35.6424 72.432 26.3842C72.432 17.1856 77.2002 12.0796 83.8029 12.0796C88.73 12.0796 92.1009 14.7121 93.3989 19.0432Z" fill="white"/>
<path d="M106.266 46.8543H113.488V16.2252H106.266V46.8543ZM109.908 11.3577C112.203 11.3577 114.077 9.59938 114.077 7.44707C114.077 5.29475 112.203 3.5166 109.908 3.5166C107.614 3.5166 105.72 5.27157 105.72 7.44707C105.72 9.62256 107.581 11.3577 109.895 11.3577H109.908Z" fill="white"/>
<path d="M135.114 16.2253H129.068V8.86765H121.846V16.2253H117.498V21.8114H121.846V38.851C121.806 44.6159 125.998 47.4603 131.422 47.2914C132.867 47.2629 134.299 47.0205 135.674 46.5728L134.455 40.9238C133.765 41.103 133.055 41.1977 132.342 41.2053C130.525 41.2053 129.068 40.5662 129.068 37.6523V21.7948H135.114V16.2253Z" fill="white"/>
<path d="M140.704 46.8543H166.101V40.649H148.108V5.99341H140.704V46.8543Z" fill="white"/>
<path d="M179.935 47.4735C184.743 47.4735 187.614 45.2185 188.932 42.6457H189.17V46.8543H196.124V26.3444C196.124 18.245 189.521 15.8112 183.674 15.8112C177.23 15.8112 172.283 18.6821 170.687 24.2682L177.432 25.2285C178.147 23.1324 180.184 21.3377 183.723 21.3377C187.078 21.3377 188.912 23.053 188.912 26.0662V26.1854C188.912 28.2583 186.737 28.3609 181.329 28.9371C175.386 29.5761 169.7 31.351 169.7 38.255C169.68 44.2814 174.088 47.4735 179.935 47.4735ZM182.31 42.1755C179.296 42.1755 177.141 40.798 177.141 38.1457C177.141 35.3708 179.555 34.2152 182.77 33.755C184.667 33.4967 188.459 33.0165 189.392 32.2616V35.8709C189.412 39.2715 186.657 42.1656 182.31 42.1656V42.1755Z" fill="white"/>
<path d="M201.442 46.8543H208.545V42.0265H208.962C210.101 44.2616 212.475 47.394 217.743 47.394C224.965 47.394 230.372 41.6656 230.372 31.5729C230.372 21.3576 224.806 15.8113 217.723 15.8113C212.316 15.8113 210.061 19.0629 208.962 21.2782H208.657V5.99341H201.442V46.8543ZM208.525 31.5331C208.525 25.5729 211.078 21.7351 215.727 21.7351C220.535 21.7351 223.011 25.8245 223.011 31.5331C223.011 37.2417 220.498 41.4669 215.727 41.4669C211.117 41.4669 208.525 37.4768 208.525 31.5331Z" fill="white"/>
<path d="M51.3721 19.9901L51.3025 19.8047L44.2827 1.49343C44.1406 1.13389 43.8876 0.828883 43.5608 0.622571C43.3168 0.466403 43.0396 0.369558 42.7516 0.3398C42.4635 0.310039 42.1724 0.348194 41.9016 0.451204C41.631 0.554217 41.388 0.719217 41.1926 0.932985C40.9972 1.14675 40.8545 1.40334 40.7761 1.68217L36.0376 16.1888H16.8489L12.1105 1.68217C12.0314 1.40375 11.8884 1.14765 11.6929 0.934293C11.4973 0.720936 11.2546 0.556227 10.9841 0.4533C10.7136 0.350373 10.4228 0.312077 10.1348 0.341465C9.84692 0.370856 9.56983 0.467114 9.32569 0.622571C8.99877 0.828883 8.74592 1.13389 8.60384 1.49343L1.58729 19.808L1.51445 19.9901C0.504268 22.6302 0.379818 25.5271 1.15986 28.2442C1.93989 30.9612 3.58214 33.351 5.83897 35.053L5.86546 35.0728L5.92503 35.1192L16.6038 43.1225L21.9019 47.1258L25.1204 49.5596C25.498 49.845 25.9584 49.9993 26.4317 49.9993C26.9049 49.9993 27.3653 49.845 27.7429 49.5596L30.9615 47.1258L36.2595 43.1225L47.0145 35.0728L47.0443 35.0497C49.3009 33.3483 50.9433 30.9592 51.7241 28.2429C52.5045 25.5266 52.381 22.6301 51.3721 19.9901Z" fill="white"/>
<path d="M51.3722 19.9901L51.3027 19.8047C47.8825 20.5065 44.6596 21.9561 41.8656 24.0497L26.4517 35.7053L36.2662 43.1225L47.0212 35.0728L47.051 35.0497C49.3066 33.3473 50.9477 30.9579 51.7272 28.2417C52.5063 25.5254 52.3818 22.6294 51.3722 19.9901Z" fill="white"/>
<path d="M16.604 43.1225L21.902 47.1258L25.1206 49.5596C25.4982 49.845 25.9585 49.9993 26.4318 49.9993C26.9051 49.9993 27.3654 49.845 27.7431 49.5596L30.9616 47.1258L36.2596 43.1225L26.4451 35.7053L16.604 43.1225Z" fill="white"/>
<path d="M11.0211 24.0498C8.22788 21.9573 5.00629 20.5087 1.58729 19.808L1.51445 19.9902C0.504268 22.6303 0.379818 25.5272 1.15986 28.2442C1.93989 30.9612 3.58214 33.351 5.83897 35.053L5.86546 35.0728L5.92503 35.1192L16.6038 43.1225L26.4251 35.7053L11.0211 24.0498Z" fill="white"/>
</g>
<defs>
<clipPath id="clip0_324_204">
<rect width="230.132" height="50" fill="white" transform="translate(0.378906)"/>
</clipPath>
</defs>
</svg>
