<svg width="257" height="114" viewBox="0 0 257 114" fill="none" xmlns="http://www.w3.org/2000/svg">
<g clip-path="url(#clip0_219_220)">
<path d="M10.1321 46.9473V78.9289H0V0H26.9049C33.7509 0 39.5701 2.25511 44.3623 6.83367C49.223 11.4122 51.6191 16.9475 51.6191 23.5078C51.6191 30.2048 49.223 35.8084 44.3623 40.2503C39.6385 44.7605 33.8194 46.9473 26.9049 46.9473H10.1321ZM10.1321 9.70381V37.2435H27.1103C31.1494 37.2435 34.504 35.8768 37.1739 33.1433C39.9124 30.4098 41.2816 27.198 41.2816 23.4395C41.2816 19.7493 39.9124 16.5375 37.1739 13.8723C34.504 11.0705 31.1494 9.70381 27.1103 9.70381H10.1321Z" fill="white"/>
<path d="M67.9127 78.9288H57.7122V24.9429H67.4335V33.7583H67.8443C68.8712 30.8882 70.9935 28.428 74.2111 26.4463C77.4287 24.3962 80.5779 23.4395 83.6586 23.4395C86.6024 23.4395 89.1354 23.8495 91.1892 24.7379L88.1085 34.5783C86.8762 34.0316 84.8909 33.8266 82.1525 33.8266C78.3187 33.8266 74.9642 35.3984 72.1573 38.4735C69.3504 41.5487 67.9127 45.1705 67.9127 49.2707V78.9288Z" fill="white"/>
<path d="M106.114 24.8746V78.8606H95.9814V24.8746H106.114Z" fill="white"/>
<path d="M142.877 78.9289H132.745L110.906 24.9429H121.859L137.742 66.8333H137.948L154.036 24.9429H164.852L142.877 78.9289Z" fill="white"/>
<path d="M191.415 80.6373C183.474 80.6373 176.902 77.9038 171.767 72.5052C166.632 67.0383 164.031 60.2046 164.031 51.8675C164.031 43.6671 166.564 36.7651 171.562 31.2982C176.559 25.8312 182.995 23.0978 190.799 23.0978C198.809 23.0978 205.176 25.6946 209.968 30.8882C214.692 36.0818 217.088 43.3254 217.088 52.6192L216.951 53.7126H174.437C174.574 58.9745 176.354 63.2798 179.708 66.4916C183.063 69.7034 187.171 71.3435 191.826 71.3435C198.33 71.3435 203.396 68.1317 207.093 61.6397L216.129 66.0816C213.733 70.6601 210.31 74.2136 205.997 76.7421C201.753 79.4072 196.892 80.6373 191.415 80.6373ZM175.19 45.3755H206.203C205.929 41.617 204.354 38.5419 201.616 36.0818C198.877 33.6216 195.18 32.3916 190.525 32.3916C186.691 32.3916 183.405 33.5533 180.667 35.9451C177.928 38.2685 176.08 41.412 175.19 45.3755Z" fill="white"/>
<path d="M233.723 78.9288H223.591V24.9429H233.313V33.7583H233.723C234.75 30.8882 236.873 28.428 240.09 26.4463C243.308 24.3962 246.457 23.4395 249.538 23.4395C252.482 23.4395 255.015 23.8495 257.068 24.7379L253.988 34.5783C252.755 34.0316 250.77 33.8266 248.032 33.8266C244.198 33.8266 240.843 35.3984 238.036 38.4735C235.23 41.5487 233.792 45.1705 233.792 49.2707V78.9288H233.723Z" fill="white"/>
<path d="M187.855 89.0427V112.892H177.723V89.0427H187.855Z" fill="#D1111C"/>
<path d="M212.569 89.0427V91.9812H201.684V99.5666H211.474V102.437H201.684V110.022H212.569V112.961H198.603V89.1111H212.569V89.0427Z" fill="white"/>
<path d="M221.88 96.0814C224.139 96.0814 225.919 96.6964 227.22 97.9265C228.52 99.1566 229.205 100.797 229.205 102.915V112.961H226.261V110.705H226.124C224.824 112.551 223.18 113.507 221.058 113.507C219.278 113.507 217.772 112.961 216.54 111.936C215.308 110.91 214.691 109.544 214.691 107.972C214.691 106.264 215.308 104.965 216.608 103.94C217.909 102.915 219.621 102.437 221.743 102.437C223.591 102.437 225.097 102.778 226.261 103.462V102.778C226.261 101.685 225.85 100.797 224.96 100.045C224.139 99.2932 223.112 98.9516 222.017 98.9516C220.305 98.9516 218.936 99.7033 217.977 101.138L215.308 99.4299C216.745 97.1065 218.936 96.0814 221.88 96.0814ZM217.909 107.904C217.909 108.724 218.251 109.339 218.936 109.885C219.621 110.432 220.442 110.705 221.332 110.705C222.633 110.705 223.797 110.227 224.755 109.27C225.782 108.314 226.261 107.22 226.261 105.922C225.303 105.17 224.002 104.76 222.222 104.76C220.99 104.76 219.963 105.034 219.073 105.649C218.183 106.264 217.909 107.015 217.909 107.904Z" fill="white"/>
<path d="M238.858 113.166C237.489 113.166 236.393 112.756 235.503 111.936C234.613 111.115 234.203 109.954 234.134 108.519V99.3615H231.259V96.5597H234.134V91.5712H237.215V96.5597H241.186V99.3615H237.215V107.494C237.215 108.587 237.42 109.339 237.831 109.68C238.242 110.09 238.721 110.295 239.269 110.295C239.542 110.295 239.748 110.295 239.953 110.227C240.159 110.159 240.432 110.09 240.638 110.022L241.596 112.756C240.843 113.029 239.885 113.166 238.858 113.166Z" fill="white"/>
<path d="M257 108.382C257 109.817 256.384 110.979 255.152 112.004C253.919 112.961 252.345 113.439 250.428 113.439C248.785 113.439 247.347 113.029 246.115 112.141C244.882 111.252 243.993 110.159 243.445 108.792L246.183 107.63C246.594 108.587 247.142 109.339 247.963 109.885C248.716 110.432 249.538 110.705 250.496 110.705C251.455 110.705 252.276 110.5 252.961 110.09C253.645 109.68 253.919 109.202 253.919 108.587C253.919 107.562 253.098 106.81 251.523 106.264L248.716 105.58C245.567 104.76 243.924 103.257 243.924 101.002C243.924 99.4983 244.54 98.3365 245.772 97.4482C247.005 96.5598 248.511 96.0814 250.428 96.0814C251.865 96.0814 253.166 96.4231 254.33 97.1065C255.494 97.7898 256.315 98.7466 256.795 99.8399L254.056 101.002C253.714 100.318 253.235 99.7716 252.55 99.3616C251.865 98.9516 251.044 98.7465 250.222 98.7465C249.401 98.7465 248.716 98.9516 248.1 99.3616C247.484 99.7716 247.142 100.25 247.142 100.797C247.142 101.753 248.032 102.368 249.812 102.778L252.276 103.393C255.357 104.282 257 105.922 257 108.382Z" fill="white"/>
</g>
<defs>
<clipPath id="clip0_219_220">
<rect width="257" height="113.439" fill="white"/>
</clipPath>
</defs>
</svg>
