<svg width="257" height="113" viewBox="0 0 257 113" fill="none" xmlns="http://www.w3.org/2000/svg">
<g clip-path="url(#clip0_219_254)">
<path d="M10.1321 46.7657V78.6235H0V0H26.9049C33.7509 0 39.5701 2.24639 44.3623 6.80723C49.223 11.3681 51.6191 16.8819 51.6191 23.4169C51.6191 30.0879 49.223 35.6699 44.3623 40.0946C39.6385 44.5873 33.8194 46.7657 26.9049 46.7657H10.1321ZM10.1321 9.66626V37.0994H27.1103C31.1494 37.0994 34.504 35.7379 37.1739 33.0151C39.9124 30.2922 41.2816 27.0928 41.2816 23.3488C41.2816 19.6729 39.9124 16.4735 37.1739 13.8187C34.504 11.0277 31.1494 9.66626 27.1103 9.66626H10.1321Z" fill="white"/>
<path d="M67.9126 78.6235H57.712V24.8464H67.4334V33.6277H67.8442C68.8711 30.7687 70.9933 28.3181 74.211 26.344C77.4286 24.3018 80.5778 23.3488 83.6585 23.3488C86.6023 23.3488 89.1353 23.7573 91.1891 24.6422L88.1084 34.4446C86.8761 33.9 84.8908 33.6958 82.1524 33.6958C78.3186 33.6958 74.964 35.2615 72.1572 38.3247C69.3503 41.388 67.9126 44.9958 67.9126 49.0801V78.6235Z" fill="white"/>
<path d="M106.113 24.7783V78.5554H95.9813V24.7783H106.113Z" fill="white"/>
<path d="M142.877 78.6235H132.745L110.906 24.8464H121.859L137.742 66.5747H137.948L154.036 24.8464H164.852L142.877 78.6235Z" fill="white"/>
<path d="M191.415 80.3253C183.474 80.3253 176.901 77.6024 171.767 72.2247C166.632 66.7789 164.031 59.9717 164.031 51.6669C164.031 43.4982 166.564 36.6229 171.562 31.1771C176.559 25.7313 182.994 23.0084 190.799 23.0084C198.809 23.0084 205.176 25.5952 209.968 30.7687C214.692 35.9422 217.088 43.1578 217.088 52.4157L216.951 53.5048H174.437C174.574 58.7464 176.354 63.0349 179.708 66.2343C183.063 69.4337 187.17 71.0675 191.826 71.0675C198.33 71.0675 203.396 67.8681 207.092 61.4012L216.129 65.8259C213.733 70.3867 210.31 73.9265 205.997 76.4452C201.753 79.1 196.892 80.3253 191.415 80.3253ZM175.19 45.2H206.202C205.929 41.456 204.354 38.3928 201.616 35.9422C198.877 33.4916 195.18 32.2663 190.525 32.2663C186.691 32.2663 183.405 33.4235 180.667 35.806C177.928 38.1205 176.08 41.2518 175.19 45.2Z" fill="white"/>
<path d="M233.723 78.6235H223.591V24.8464H233.313V33.6277H233.723C234.75 30.7687 236.873 28.3181 240.09 26.344C243.308 24.3018 246.457 23.3488 249.538 23.3488C252.482 23.3488 255.015 23.7573 257.068 24.6422L253.988 34.4446C252.755 33.9 250.77 33.6958 248.032 33.6958C244.198 33.6958 240.843 35.2615 238.036 38.3247C235.23 41.388 233.792 44.9958 233.792 49.0801V78.6235H233.723Z" fill="white"/>
<path d="M220.921 112.455H207.503V88.6982H210.584V109.528H220.921V112.455Z" fill="white"/>
<path d="M229.753 95.7097C232.012 95.7097 233.792 96.3224 235.093 97.5477C236.393 98.773 237.078 100.407 237.078 102.517V112.524H234.134V110.277H233.997C232.697 112.115 231.054 113.068 228.931 113.068C227.151 113.068 225.645 112.524 224.413 111.502C223.181 110.481 222.564 109.12 222.564 107.554C222.564 105.852 223.181 104.559 224.481 103.538C225.782 102.517 227.494 102.04 229.616 102.04C231.464 102.04 232.97 102.381 234.134 103.062V102.381C234.134 101.292 233.723 100.407 232.833 99.6579C232.012 98.9091 230.985 98.5688 229.89 98.5688C228.178 98.5688 226.809 99.3175 225.851 100.747L223.181 99.0453C224.687 96.7308 226.877 95.7097 229.753 95.7097ZM225.782 107.486C225.782 108.303 226.124 108.916 226.809 109.46C227.494 110.005 228.315 110.277 229.205 110.277C230.506 110.277 231.67 109.801 232.628 108.848C233.655 107.895 234.134 106.805 234.134 105.512C233.176 104.763 231.875 104.355 230.095 104.355C228.863 104.355 227.836 104.627 226.946 105.24C226.056 105.852 225.782 106.601 225.782 107.486Z" fill="white"/>
<path d="M249.264 113C248.032 113 246.936 112.728 245.978 112.251C245.019 111.775 244.198 111.094 243.719 110.209H243.582V112.455H240.638V88.6982H243.719V96.1862L243.582 98.4326H243.719C244.266 97.6157 245.019 96.935 245.978 96.3904C246.936 95.8458 248.032 95.6416 249.264 95.6416C251.455 95.6416 253.235 96.4585 254.741 98.1603C256.247 99.8621 257.068 101.904 257.068 104.287C257.068 106.669 256.315 108.711 254.741 110.413C253.235 112.183 251.386 113 249.264 113ZM248.716 110.209C250.154 110.209 251.386 109.665 252.413 108.575C253.44 107.486 253.919 106.057 253.919 104.355C253.919 102.653 253.44 101.224 252.413 100.134C251.386 99.0452 250.154 98.5006 248.716 98.5006C247.21 98.5006 245.978 99.0452 244.951 100.134C243.992 101.224 243.513 102.653 243.513 104.355C243.513 106.057 243.992 107.486 244.951 108.575C245.978 109.665 247.279 110.209 248.716 110.209Z" fill="white"/>
<path d="M196.755 88.6982V112.455H186.623V88.6982H196.755Z" fill="#9747FF"/>
</g>
<defs>
<clipPath id="clip0_219_254">
<rect width="257" height="113" fill="white"/>
</clipPath>
</defs>
</svg>
