<svg width="244" height="50" viewBox="0 0 244 50" fill="none" xmlns="http://www.w3.org/2000/svg">
<path fill-rule="evenodd" clip-rule="evenodd" d="M22.8423 22.7308L23.2553 22.6154C26.3323 21.6929 29.3508 20.5851 32.2942 19.2981C35.28 18.1258 38.0816 16.5293 40.6127 14.5577C43.2999 12.4181 45.3224 9.5564 46.4434 6.30769C46.6851 5.77293 46.8625 5.2113 46.9717 4.63461C42.9277 10.1635 26.8959 10.7404 26.8959 10.7404L30.6805 7.26923C19.6663 7.3072 8.93946 10.7901 0 17.2308C6.05472 17.88 11.7497 20.4276 16.272 24.5096C18.4429 23.8365 20.6618 23.3558 22.8423 22.75V22.7308ZM47.9803 22.1827C37.7798 21.7096 27.5747 23.0109 17.8185 26.0288C19.8679 28.1694 21.5782 30.6111 22.8903 33.2692C30.9687 28.7692 42.1689 23.0192 47.9803 22.2019V22.1827ZM23.9085 35.5673C24.8667 38.0354 25.4808 40.6238 25.7336 43.2596L39.8251 28.7692L23.9085 35.5673ZM31.3049 42.6731V42.5192C31.3024 42.4572 31.2824 42.3972 31.2472 42.3461C31.2151 42.298 31.161 42.2691 31.1031 42.2692H31.228C31.3046 42.2182 31.3485 42.1304 31.3433 42.0385C31.3566 41.9144 31.286 41.7966 31.1704 41.75C31.072 41.731 30.971 41.731 30.8726 41.75H30.4788V42.8365H30.6901V42.4423H30.8438C30.91 42.426 30.9792 42.426 31.0455 42.4423C31.1112 42.4956 31.1441 42.5796 31.132 42.6635V42.8269H31.3433L31.3049 42.6731ZM30.6805 41.8269H30.815C30.8876 41.8101 30.9632 41.8101 31.0359 41.8269C31.0781 41.858 31.1002 41.9095 31.0935 41.9615C31.1018 42.0291 31.0617 42.0932 30.9975 42.1154C30.9402 42.1245 30.8818 42.1245 30.8246 42.1154H30.6805V41.75V41.8269Z" fill="white"/>
<path fill-rule="evenodd" clip-rule="evenodd" d="M31.5643 41.5096C31.3826 41.3154 31.1288 41.2052 30.863 41.2052C30.5973 41.2052 30.3434 41.3154 30.1618 41.5096C29.9737 41.6941 29.8695 41.9479 29.8737 42.2115C29.8695 42.4752 29.9737 42.7289 30.1618 42.9135C30.3434 43.1076 30.5973 43.2178 30.863 43.2178C31.1288 43.2178 31.3826 43.1076 31.5643 42.9135C31.7582 42.7317 31.8683 42.4775 31.8683 42.2115C31.8683 41.9455 31.7582 41.6914 31.5643 41.5096ZM30.863 43.0288C30.646 43.0316 30.4375 42.9446 30.2867 42.7885C29.9743 42.4674 29.9743 41.9557 30.2867 41.6346C30.4385 41.4796 30.6462 41.3922 30.863 41.3922C31.0799 41.3922 31.2876 41.4796 31.4394 41.6346C31.7517 41.9557 31.7517 42.4674 31.4394 42.7885C31.2885 42.9446 31.08 43.0316 30.863 43.0288Z" fill="white"/>
<path fill-rule="evenodd" clip-rule="evenodd" d="M133.576 29.2596C131.27 29.2596 129.139 28.028 127.986 26.0288C126.833 24.0296 126.833 21.5665 127.986 19.5673C129.139 17.5681 131.27 16.3365 133.576 16.3365C137.141 16.3365 140.031 19.2295 140.031 22.7981C140.031 26.3667 137.141 29.2596 133.576 29.2596ZM133.576 9.28845C128.002 9.35449 123.047 12.856 121.118 18.0914C119.189 23.3267 120.687 29.2105 124.884 32.8833C129.08 36.5562 135.105 37.2566 140.031 34.6442V36.2788C140.026 39.8453 137.139 42.7351 133.576 42.7404C131.635 42.7404 130.06 44.316 130.06 46.2596C130.06 48.2032 131.635 49.7788 133.576 49.7788C140.992 49.7529 146.998 43.7404 147.024 36.3173V22.8558C146.998 15.4327 140.992 9.42018 133.576 9.39422V9.28845ZM67.1242 29.2596C63.5592 29.2649 60.6649 26.3763 60.6596 22.8077C60.6543 19.2391 63.54 16.3418 67.105 16.3365C70.67 16.3312 73.5643 19.2198 73.5696 22.7885C73.5749 26.3571 70.6892 29.2543 67.1242 29.2596ZM67.1242 9.28845C59.7086 9.31441 53.7022 15.3269 53.6763 22.75V41.9808C53.6763 43.2381 54.3464 44.3999 55.4341 45.0285C56.5219 45.6572 57.862 45.6572 58.9498 45.0285C60.0375 44.3999 60.7076 43.2381 60.7076 41.9808V34.6154C62.6833 35.6985 64.9004 36.2641 67.153 36.2596C74.6041 36.2596 80.6442 30.2135 80.6442 22.7548C80.6442 15.2961 74.6041 9.24999 67.153 9.24999L67.1242 9.28845ZM104.951 9.28845C97.5357 9.31441 91.5293 15.3269 91.5034 22.75V32.7308C91.5034 34.6744 93.0774 36.25 95.019 36.25C96.9607 36.25 98.5347 34.6744 98.5347 32.7308V22.7981C98.5347 19.2348 101.42 16.3461 104.98 16.3461C108.54 16.3461 111.426 19.2348 111.426 22.7981V32.7788C111.358 34.0783 112.012 35.3092 113.126 35.9793C114.24 36.6495 115.633 36.6495 116.747 35.9793C117.861 35.3092 118.515 34.0783 118.447 32.7788V22.7981C118.421 15.375 112.415 9.36249 104.999 9.33653L104.951 9.28845ZM190.845 29.1442C187.28 29.1495 184.386 26.2609 184.381 22.6923C184.375 19.1237 187.261 16.2265 190.826 16.2211C194.391 16.2158 197.285 19.1045 197.291 22.6731C197.296 26.2417 194.41 29.1389 190.845 29.1442ZM190.845 9.17307C183.418 9.17307 177.397 15.2 177.397 22.6346C177.397 30.0692 183.418 36.0961 190.845 36.0961C198.272 36.0961 204.293 30.0692 204.293 22.6346C204.267 15.2115 198.261 9.19903 190.845 9.17307ZM162.211 29.2596C158.646 29.2596 155.756 26.3667 155.756 22.7981C155.756 19.2295 158.646 16.3365 162.211 16.3365C165.776 16.3365 168.666 19.2295 168.666 22.7981C168.66 26.3645 165.773 29.2543 162.211 29.2596ZM172.172 0.0576806C170.23 0.0576806 168.656 1.63329 168.656 3.57691V10.9423C163.34 8.04737 156.746 9.06396 152.547 13.4261C148.347 17.7883 147.576 24.4213 150.662 29.6325C153.749 34.8437 159.932 37.3491 165.771 35.754C171.609 34.1589 175.664 28.8562 175.678 22.7981V3.5673C175.678 1.62368 174.104 0.0480652 172.162 0.0480652L172.172 0.0576806ZM85.788 9.28845C83.8463 9.28845 82.2723 10.8641 82.2723 12.8077V32.7692C82.2723 34.7128 83.8463 36.2885 85.788 36.2885C87.7296 36.2885 89.3037 34.7128 89.3037 32.7692V12.8173C89.3037 10.8737 87.7296 9.29807 85.788 9.29807V9.28845ZM82.2723 3.57691C82.2723 5.52053 83.8463 7.09614 85.788 7.09614C87.7296 7.09614 89.3037 5.52053 89.3037 3.57691C89.3037 1.63329 87.7296 0.0576806 85.788 0.0576806C83.8463 0.0576806 82.2723 1.63329 82.2723 3.57691ZM224.446 36.1827C225.38 36.1827 226.275 35.8106 226.935 35.1485C227.595 34.4865 227.964 33.5889 227.961 32.6538V17.6923C227.961 16.8798 228.619 16.2211 229.431 16.2211C232.992 16.2264 235.876 19.1178 235.876 22.6827V32.6154C235.876 34.559 237.45 36.1346 239.392 36.1346C241.334 36.1346 242.908 34.559 242.908 32.6154V22.6827C242.882 15.2596 236.875 9.2471 229.46 9.22114C227.752 9.21665 226.059 9.54316 224.475 10.1827C222.89 9.5434 221.197 9.21689 219.489 9.22114C212.076 9.25287 206.073 15.2615 206.041 22.6827V32.6154C206.041 34.559 207.615 36.1346 209.557 36.1346C211.499 36.1346 213.073 34.559 213.073 32.6154V22.6827C213.073 19.1178 215.957 16.2264 219.518 16.2211C220.33 16.2211 220.988 16.8798 220.988 17.6923V32.6154C220.985 33.5504 221.354 34.448 222.014 35.1101C222.674 35.7721 223.569 36.1442 224.503 36.1442L224.446 36.1827Z" fill="white"/>
</svg>
