<svg width="201" height="50" viewBox="0 0 201 50" fill="none" xmlns="http://www.w3.org/2000/svg">
<g clip-path="url(#clip0_324_190)">
<path d="M63.4315 39.5644L65.8723 33.8594C68.5449 35.8386 72.0307 36.8862 75.5173 36.8862C78.0739 36.8862 79.7007 35.897 79.7007 34.3836C79.6423 30.192 64.3031 33.452 64.1865 22.9136C64.1281 17.5578 68.8931 13.4245 75.6339 13.4245C79.6423 13.4245 83.6523 14.4145 86.4989 16.6853L84.2181 22.512C81.5989 20.8278 78.3639 19.6537 75.2849 19.6537C73.1931 19.6537 71.7981 20.6428 71.7981 21.9244C71.8565 26.0578 87.3131 23.787 87.4873 33.8594C87.4873 39.332 82.8381 43.1744 76.2139 43.1744C71.3339 43.1744 66.8599 42.0104 63.4307 39.5644H63.4315ZM160.621 31.7936C160.005 32.8884 159.109 33.7994 158.025 34.4336C156.94 35.0676 155.707 35.4018 154.451 35.402C150.536 35.402 147.362 32.222 147.362 28.2994C147.362 24.377 150.536 21.197 154.451 21.197C155.707 21.197 156.94 21.5314 158.025 22.1654C159.109 22.7994 160.005 23.7106 160.621 24.8054L167.407 21.0386C164.866 16.4962 160.017 13.4245 154.451 13.4245C146.251 13.4245 139.605 20.0836 139.605 28.2994C139.605 36.5144 146.251 43.1744 154.451 43.1744C160.017 43.1744 164.866 40.1028 167.407 35.5604L160.621 31.7936ZM91.8907 42.592H100.374V1.04199H91.8915L91.8907 42.592ZM171.691 1.04199V42.592H180.175V30.1436L190.227 42.592H201.071L188.287 27.8036L200.141 14.0045H189.762L180.175 25.477V1.04199H171.691ZM126.51 14.0062V17.3837C125.116 15.0545 121.687 13.4245 118.085 13.4245C110.647 13.4245 104.779 20.0036 104.779 28.2704C104.779 36.537 110.647 43.1744 118.085 43.1744C121.687 43.1744 125.116 41.5444 126.51 39.2154V42.592H134.993V14.0062H126.51ZM126.51 31.8512C125.29 33.8886 122.733 35.4012 119.886 35.4012C115.971 35.4012 112.797 32.222 112.797 28.2994C112.797 24.377 115.971 21.197 119.886 21.197C122.733 21.197 125.29 22.7686 126.51 24.8636V31.8512Z" fill="white"/>
<path d="M18.6306 0.123688C15.8814 0.123688 13.6531 2.35701 13.6531 5.11119C13.6524 5.76549 13.7806 6.41353 14.0304 7.01829C14.2802 7.62305 14.6467 8.17267 15.1089 8.63581C15.5711 9.09895 16.12 9.46651 16.7242 9.71751C17.3285 9.96851 17.9763 10.098 18.6306 10.0987H23.6089V5.11119C23.6101 3.78967 23.0861 2.52183 22.1525 1.58651C21.2189 0.651199 19.9521 0.125013 18.6306 0.123688ZM18.6306 13.4237H5.35641C2.60725 13.4237 0.378906 15.657 0.378906 18.412C0.378906 21.1662 2.60725 23.3996 5.35641 23.3996H18.6314C21.3797 23.3996 23.6089 21.1662 23.6089 18.412C23.6089 15.657 21.3797 13.4237 18.6306 13.4237Z" fill="white"/>
<path d="M50.1572 18.412C50.1572 15.657 47.928 13.4237 45.1788 13.4237C42.4296 13.4237 40.2014 15.657 40.2014 18.412V23.3996H45.1788C46.5004 23.3982 47.7672 22.872 48.7008 21.9368C49.6344 21.0014 50.1582 19.7335 50.1572 18.412ZM36.883 18.412V5.11119C36.884 3.78967 36.3602 2.52183 35.4266 1.58651C34.493 0.651199 33.2262 0.125013 31.9046 0.123688C29.1554 0.123688 26.9272 2.35701 26.9272 5.11119V18.4112C26.9272 21.167 29.1554 23.4004 31.9046 23.4004C33.2262 23.399 34.493 22.8728 35.4266 21.9376C36.3602 21.0022 36.884 19.7344 36.883 18.4129" fill="white"/>
<path d="M31.9046 50.0004C33.2262 49.9992 34.493 49.473 35.4266 48.5376C36.3602 47.6024 36.884 46.3344 36.883 45.013C36.884 43.6914 36.3602 42.4236 35.4266 41.4882C34.493 40.553 33.2262 40.0268 31.9046 40.0254H26.9272V45.013C26.9272 47.7672 29.1554 50.0004 31.9046 50.0004ZM31.9046 36.7004H45.1796C47.928 36.7004 50.1572 34.4672 50.1572 31.7122C50.1582 30.3906 49.6344 29.1228 48.7008 28.1874C47.7672 27.2522 46.5004 26.726 45.1788 26.7246H31.9046C29.1554 26.7246 26.9272 28.958 26.9272 31.7122C26.9264 32.3664 27.0548 33.0144 27.3046 33.6192C27.5542 34.224 27.9208 34.7736 28.383 35.2368C28.8452 35.6998 29.394 36.0674 29.9984 36.3184C30.6026 36.5694 31.2504 36.699 31.9046 36.6996" fill="white"/>
<path d="M0.378909 31.7122C0.378252 32.3664 0.506478 33.0144 0.756264 33.6192C1.00605 34.224 1.37251 34.7736 1.83471 35.2368C2.29692 35.6998 2.84581 36.0674 3.45007 36.3184C4.05433 36.5694 4.70211 36.699 5.35641 36.6996C6.67793 36.6982 7.94481 36.172 8.87841 35.2368C9.81199 34.3014 10.3358 33.0336 10.3347 31.7122V26.7246H5.35641C2.60725 26.7246 0.378909 28.958 0.378909 31.7122ZM13.6531 31.7122V45.0122C13.6531 47.7672 15.8814 50.0004 18.6306 50.0004C19.9521 49.9992 21.2189 49.473 22.1525 48.5376C23.0861 47.6024 23.6101 46.3344 23.6089 45.013V31.7122C23.6095 31.0578 23.4813 30.4096 23.2315 29.8048C22.9817 29.2 22.6151 28.6504 22.1529 28.1872C21.6905 27.724 21.1415 27.3566 20.5371 27.1056C19.9328 26.8546 19.285 26.7252 18.6306 26.7246C15.8814 26.7246 13.6531 28.958 13.6531 31.7122Z" fill="white"/>
</g>
<defs>
<clipPath id="clip0_324_190">
<rect width="200" height="50" fill="white" transform="translate(0.378906)"/>
</clipPath>
</defs>
</svg>
