<svg width="219" height="50" viewBox="0 0 219 50" fill="none" xmlns="http://www.w3.org/2000/svg">
<g clip-path="url(#clip0_324_215)">
<path d="M28.9584 18.4286H42.0536V41.619H0.43457V18.4286H13.5298V30H28.9108V18.4286H28.9584ZM73.2441 30.2857C73.2441 34.2381 70.6727 36.5238 67.1012 36.5238C63.625 36.5238 61.006 34.1905 61.006 30.2857V11.619H55.1965V30.2381C55.1965 37.5714 60.4346 42.2381 67.1489 42.2381C73.9108 42.2381 79.1012 37.5714 79.1012 30.2381V11.619H73.2917V30.2857H73.2441ZM94.0536 20.2381C91.8155 20.2381 89.3393 21.1905 88.0536 23.381V20.8095H82.6251V41.619H88.2441V29.619C88.2441 27.1905 89.6727 25.2857 92.1489 25.2857C94.8631 25.2857 96.006 27.0952 96.006 29.4286V41.5714H101.625V28.4762C101.577 23.9048 99.1965 20.2381 94.0536 20.2381ZM114.673 29C114.673 29 112.768 28.619 111.577 28.381C110.387 28.1429 109.673 27.5238 109.673 26.5238C109.673 25.3333 110.72 24.4762 112.196 24.4762C114.292 24.4762 115.101 25.5238 115.292 26.8095H120.149C120.101 23.9524 117.863 20.2381 112.292 20.2381C107.816 20.2381 104.53 23.3333 104.53 27.0476C104.53 29.9524 106.339 32.381 110.339 33.2381L113.196 33.8571C114.816 34.1905 115.435 34.9524 115.435 35.9048C115.435 37 114.435 37.9524 112.577 37.9524C110.339 37.9524 109.101 36.6667 108.816 35.1905H103.816C104.101 38.2857 106.339 42.2381 112.625 42.2381C118.054 42.2381 120.816 38.7619 120.816 35.381C120.863 32.3333 118.768 29.8571 114.673 29ZM144.768 31.1429C144.768 37.4286 140.816 42.0952 134.958 42.0952C132.101 42.0952 129.958 40.9524 128.958 39.5714V49.619H123.339V20.8095H128.768V23.381C129.72 21.7619 132.006 20.3333 135.149 20.3333C141.244 20.3333 144.768 25 144.768 31.1429ZM139.244 31.1905C139.244 27.5238 136.958 25.381 134.101 25.381C131.244 25.381 128.911 27.5238 128.911 31.1905C128.911 34.8571 131.244 37.0476 134.101 37.0476C136.958 37.0476 139.244 34.9048 139.244 31.1905ZM171.625 20.8095H177.054V41.619H171.435V39.0476C170.482 40.7143 168.292 42.0952 165.435 42.0952C159.577 42.0952 155.625 37.4286 155.625 31.1429C155.625 24.9524 159.149 20.3333 165.196 20.3333C168.339 20.3333 170.577 21.7619 171.577 23.381V20.8095H171.625ZM171.53 31.1905C171.53 27.5238 169.196 25.381 166.339 25.381C163.482 25.381 161.196 27.5238 161.196 31.1905C161.196 34.9048 163.482 37.0476 166.339 37.0476C169.196 37.0476 171.53 34.8571 171.53 31.1905ZM147.387 41.5714H153.006V11.619H147.387V41.5714ZM210.435 20.2381C208.435 20.2381 206.149 20.9048 204.816 22.5238V11.619H199.196V41.5714H204.816V29.381C204.958 27.0952 206.339 25.3333 208.72 25.3333C211.435 25.3333 212.577 27.1429 212.577 29.4762V41.619H218.196V28.5238C218.149 23.9048 215.72 20.2381 210.435 20.2381ZM190.435 29C190.435 29 188.53 28.619 187.339 28.381C186.149 28.1429 185.435 27.5238 185.435 26.5238C185.435 25.3333 186.482 24.4762 187.958 24.4762C190.054 24.4762 190.863 25.5238 191.054 26.8095H195.911C195.863 23.9524 193.625 20.2381 188.054 20.2381C183.577 20.2381 180.292 23.3333 180.292 27.0476C180.292 29.9524 182.101 32.381 186.101 33.2381L188.958 33.8571C190.577 34.1905 191.196 34.9524 191.196 35.9048C191.196 37 190.196 37.9524 188.339 37.9524C186.101 37.9524 184.863 36.6667 184.577 35.1905H179.577C179.863 38.2857 182.101 42.2381 188.387 42.2381C193.816 42.2381 196.577 38.7619 196.577 35.381C196.625 32.3333 194.53 29.8571 190.435 29ZM28.9584 0H13.5298V11.619H28.9108V0H28.9584Z" fill="white"/>
</g>
<defs>
<clipPath id="clip0_324_215">
<rect width="218.095" height="50" fill="white" transform="translate(0.43457)"/>
</clipPath>
</defs>
</svg>
