<svg width="257" height="119" viewBox="0 0 257 119" fill="none" xmlns="http://www.w3.org/2000/svg">
<g clip-path="url(#clip0_219_204)">
<path d="M10.1321 46.3338V77.8975H0V0H26.9049C33.7509 0 39.5701 2.22564 44.3623 6.74437C49.223 11.2631 51.6191 16.726 51.6191 23.2006C51.6191 29.8101 49.223 35.3405 44.3623 39.7244C39.6385 44.1756 33.8194 46.3338 26.9049 46.3338H10.1321ZM10.1321 9.57701V36.7568H27.1103C31.1494 36.7568 34.504 35.408 37.1739 32.7102C39.9124 30.0125 41.2816 26.8426 41.2816 23.1332C41.2816 19.4912 39.9124 16.3214 37.1739 13.6911C34.504 10.9259 31.1494 9.57701 27.1103 9.57701H10.1321Z" fill="white"/>
<path d="M67.9127 77.8975H57.7122V24.6169H67.4335V33.3172H67.8443C68.8712 30.4845 70.9935 28.0566 74.2111 26.1007C77.4287 24.0774 80.5779 23.1332 83.6586 23.1332C86.6024 23.1332 89.1354 23.5378 91.1892 24.4146L88.1085 34.1265C86.8762 33.587 84.8909 33.3846 82.1525 33.3846C78.3187 33.3846 74.9642 34.9358 72.1573 37.9708C69.3504 41.0058 67.9127 44.5803 67.9127 48.6269V77.8975Z" fill="white"/>
<path d="M106.114 24.5496V77.8301H95.9814V24.5496H106.114Z" fill="white"/>
<path d="M142.877 77.8975H132.745L110.906 24.6169H121.859L137.742 65.96H137.948L154.036 24.6169H164.852L142.877 77.8975Z" fill="white"/>
<path d="M191.415 79.5836C183.474 79.5836 176.902 76.8859 171.767 71.5578C166.632 66.1623 164.031 59.418 164.031 51.1898C164.031 43.0966 166.564 36.2848 171.562 30.8893C176.559 25.4938 182.995 22.796 190.799 22.796C198.809 22.796 205.176 25.3589 209.968 30.4846C214.692 35.6103 217.088 42.7594 217.088 51.9317L216.951 53.0108H174.437C174.574 58.204 176.354 62.4529 179.708 65.6228C183.063 68.7926 187.171 70.4113 191.826 70.4113C198.33 70.4113 203.396 67.2414 207.093 60.8343L216.129 65.2181C213.733 69.7369 210.31 73.2439 205.997 75.7394C201.753 78.3697 196.892 79.5836 191.415 79.5836ZM175.19 44.7827H206.203C205.929 41.0733 204.354 38.0383 201.616 35.6103C198.877 33.1824 195.18 31.9684 190.525 31.9684C186.691 31.9684 183.405 33.1149 180.667 35.4754C177.928 37.7685 176.08 40.8709 175.19 44.7827Z" fill="white"/>
<path d="M233.723 77.8975H223.591V24.6169H233.313V33.3172H233.723C234.75 30.4845 236.873 28.0566 240.09 26.1007C243.308 24.0774 246.457 23.1332 249.538 23.1332C252.482 23.1332 255.015 23.5378 257.068 24.4146L253.988 34.1265C252.755 33.587 250.77 33.3846 248.032 33.3846C244.198 33.3846 240.843 34.9358 238.036 37.9708C235.23 41.0058 233.792 44.5803 233.792 48.6269V77.8975H233.723Z" fill="white"/>
<path d="M211.132 101.907V111.417H208.119V87.8792H216.266C218.32 87.8792 220.1 88.5536 221.538 89.9025C222.975 91.2513 223.728 92.9374 223.728 94.8933C223.728 96.9166 222.975 98.5353 221.538 99.8841C220.1 101.233 218.388 101.907 216.266 101.907H211.132ZM211.132 90.7792V99.0074H216.266C217.498 99.0074 218.525 98.6027 219.278 97.7934C220.1 96.9841 220.511 96.0398 220.511 94.8933C220.511 93.8142 220.1 92.87 219.278 92.0607C218.457 91.2513 217.498 90.7792 216.266 90.7792H211.132Z" fill="white"/>
<path d="M231.943 94.8258C234.203 94.8258 235.983 95.4328 237.283 96.6468C238.584 97.8608 239.269 99.4794 239.269 101.57V111.484H236.325V109.259H236.188C234.887 111.08 233.244 112.024 231.122 112.024C229.342 112.024 227.836 111.484 226.604 110.473C225.371 109.461 224.755 108.112 224.755 106.561C224.755 104.875 225.371 103.593 226.672 102.582C227.973 101.57 229.684 101.098 231.807 101.098C233.655 101.098 235.161 101.435 236.325 102.11V101.435C236.325 100.356 235.914 99.4794 235.024 98.7375C234.203 97.9957 233.176 97.6584 232.08 97.6584C230.369 97.6584 229 98.4003 228.041 99.8166L225.371 98.1305C226.809 95.8375 229 94.8258 231.943 94.8258ZM227.973 106.494C227.973 107.303 228.315 107.91 229 108.449C229.684 108.989 230.506 109.259 231.396 109.259C232.697 109.259 233.86 108.787 234.819 107.842C235.846 106.898 236.325 105.819 236.325 104.538C235.366 103.796 234.066 103.391 232.286 103.391C231.053 103.391 230.027 103.661 229.137 104.268C228.247 104.875 227.973 105.617 227.973 106.494Z" fill="white"/>
<path d="M257 95.298L246.731 118.499H243.582L247.416 110.405L240.707 95.298H244.061L248.922 106.898H248.99L253.714 95.298H257Z" fill="white"/>
<path d="M197.303 87.8792V111.417H187.17V87.8792H197.303Z" fill="#FBBB0C"/>
</g>
<defs>
<clipPath id="clip0_219_204">
<rect width="257" height="118.566" fill="white"/>
</clipPath>
</defs>
</svg>
