<?xml version="1.0" encoding="utf-8"?>
<!-- Generator: Adobe Illustrator 25.2.3, SVG Export Plug-In . SVG Version: 6.00 Build 0)  -->
<svg version="1.1" id="Capa_1" xmlns="http://www.w3.org/2000/svg" xmlns:xlink="http://www.w3.org/1999/xlink" x="0px" y="0px"
	 viewBox="0 0 115 45.9" style="enable-background:new 0 0 115 45.9;" xml:space="preserve">
<style type="text/css">
	.st0{fill:#009649;}
	.st1{fill:#FFFFFF;}
</style>
<g>
	<path class="st0" d="M21.2,35.3h-4.3V32h-0.2c-0.7,1.2-1.7,2.1-3.1,2.9c-1.4,0.8-2.9,1.2-4.4,1.2c-2.9,0-5.2-0.8-6.8-2.5
		C0.8,31.9,0,29.5,0,26.5v-15h4.5v14.7c0.1,3.9,2.1,5.8,5.9,5.8c1.8,0,3.3-0.7,4.5-2.2c1.2-1.4,1.8-3.2,1.8-5.2V11.4h4.5V35.3z"/>
	<path class="st1" d="M31.9,35.3h-4.5V0.4h4.5L44,21.7h0.2L56.4,0.4h4.5v34.9h-4.5V14.6l0.2-5.8h-0.2L45.4,27.9h-2.6L31.9,8.8h-0.2
		l0.2,5.8V35.3z"/>
	<path class="st1" d="M75.4,10.7c3.3,0,5.9,0.9,7.8,2.7c1.9,1.8,2.9,4.2,2.9,7.3v14.7h-4.3V32h-0.2c-1.9,2.7-4.3,4.1-7.4,4.1
		c-2.6,0-4.8-0.8-6.6-2.3S65,30.3,65,27.9c0-2.5,0.9-4.4,2.8-5.9c1.9-1.5,4.4-2.2,7.5-2.2c2.7,0,4.9,0.5,6.6,1.5v-1
		c0-1.6-0.6-2.9-1.9-4c-1.2-1.1-2.7-1.6-4.3-1.6c-2.5,0-4.5,1.1-5.9,3.2l-3.9-2.5C67.9,12.2,71.2,10.7,75.4,10.7z M69.6,28
		c0,1.2,0.5,2.1,1.5,2.9c1,0.8,2.2,1.2,3.5,1.2c1.9,0,3.6-0.7,5-2.1c1.5-1.4,2.2-3,2.2-4.9c-1.4-1.1-3.3-1.7-5.9-1.7
		c-1.8,0-3.3,0.4-4.6,1.3S69.6,26.7,69.6,28z"/>
	<path class="st1" d="M103.6,36.1c-1.8,0-3.4-0.4-4.8-1.1c-1.4-0.7-2.6-1.7-3.3-3h-0.2l0.2,3.3v10.5H91V11.4h4.3v3.3h0.2
		c0.8-1.2,1.9-2.2,3.3-3c1.4-0.7,3-1.1,4.8-1.1c3.2,0,5.8,1.2,8,3.7c2.2,2.5,3.4,5.5,3.4,9c0,3.5-1.1,6.5-3.4,9
		C109.5,34.9,106.8,36.1,103.6,36.1z M102.9,32c2.1,0,3.9-0.8,5.4-2.4c1.5-1.6,2.2-3.7,2.2-6.2c0-2.5-0.7-4.6-2.2-6.2
		c-1.5-1.6-3.3-2.4-5.4-2.4c-2.2,0-4,0.8-5.5,2.4c-1.4,1.6-2.1,3.7-2.1,6.2c0,2.5,0.7,4.6,2.1,6.2C98.9,31.2,100.7,32,102.9,32z"/>
</g>
</svg>
