<svg width="257" height="121" viewBox="0 0 257 121" fill="none" xmlns="http://www.w3.org/2000/svg">
<g clip-path="url(#clip0_219_237)">
<path d="M10.1321 47.0852V79.1607H0V0H26.9049C33.7509 0 39.5701 2.26173 44.3623 6.85374C49.223 11.4457 51.6191 16.9973 51.6191 23.5769C51.6191 30.2935 49.223 35.9136 44.3623 40.3685C39.6385 44.892 33.8194 47.0852 26.9049 47.0852H10.1321ZM10.1321 9.73231V37.3529H27.1103C31.1494 37.3529 34.504 35.9821 37.1739 33.2406C39.9124 30.4991 41.2816 27.2779 41.2816 23.5083C41.2816 19.8073 39.9124 16.5861 37.1739 13.9131C34.504 11.1031 31.1494 9.73231 27.1103 9.73231H10.1321Z" fill="white"/>
<path d="M67.9126 79.1607H57.712V25.0161H67.4334V33.8575H67.8442C68.8711 30.9789 70.9933 28.5115 74.211 26.5239C77.4286 24.4678 80.5778 23.5083 83.6585 23.5083C86.6023 23.5083 89.1353 23.9195 91.1891 24.8105L88.1084 34.6799C86.8761 34.1316 84.8908 33.926 82.1524 33.926C78.3186 33.926 74.964 35.5023 72.1572 38.5865C69.3503 41.6707 67.9126 45.3032 67.9126 49.4154V79.1607Z" fill="white"/>
<path d="M106.113 24.9476V79.0922H95.9813V24.9476H106.113Z" fill="white"/>
<path d="M142.877 79.1607H132.745L110.906 25.0161H121.859L137.742 67.0296H137.948L154.036 25.0161H164.852L142.877 79.1607Z" fill="white"/>
<path d="M191.415 80.8742C183.474 80.8742 176.902 78.1327 171.767 72.7182C166.632 67.2352 164.031 60.3815 164.031 52.0199C164.031 43.7954 166.564 36.8731 171.562 31.3901C176.559 25.9071 182.995 23.1656 190.799 23.1656C198.809 23.1656 205.176 25.7701 209.968 30.9789C214.692 36.1878 217.088 43.4527 217.088 52.7738L216.951 53.8704H174.437C174.574 59.1478 176.354 63.4657 179.708 66.6869C183.063 69.9082 187.171 71.5531 191.826 71.5531C198.33 71.5531 203.396 68.3318 207.093 61.8208L216.129 66.2757C213.733 70.8677 210.31 74.4316 205.997 76.9675C201.753 79.6405 196.892 80.8742 191.415 80.8742ZM175.19 45.5089H206.203C205.929 41.7393 204.354 38.6551 201.616 36.1878C198.877 33.7204 195.18 32.4867 190.525 32.4867C186.691 32.4867 183.405 33.6519 180.667 36.0507C177.928 38.381 176.08 41.5337 175.19 45.5089Z" fill="white"/>
<path d="M233.723 79.1607H223.591V25.0161H233.313V33.8575H233.723C234.75 30.9789 236.873 28.5115 240.09 26.5239C243.308 24.4678 246.457 23.5083 249.538 23.5083C252.482 23.5083 255.015 23.9195 257.068 24.8105L253.988 34.6799C252.755 34.1316 250.77 33.926 248.032 33.926C244.198 33.926 240.843 35.5023 238.036 38.5865C235.23 41.6707 233.792 45.3032 233.792 49.4154V79.1607H233.723Z" fill="white"/>
<path d="M171.151 89.3042V113.224H161.019V89.3042H171.151Z" fill="#009649"/>
<path d="M184.98 113.224H181.899V89.3042H184.98L193.263 103.903H193.4L201.684 89.3042H204.765V113.224H201.684V99.0365L201.821 95.0613H201.684L194.222 108.221H192.442L184.98 95.0613H184.843L184.98 99.0365V113.224Z" fill="white"/>
<path d="M214.76 96.3635C217.019 96.3635 218.799 96.9804 220.1 98.214C221.401 99.4477 222.085 101.093 222.085 103.217V113.292H219.141V111.031H219.004C217.704 112.881 216.061 113.841 213.938 113.841C212.158 113.841 210.652 113.292 209.42 112.264C208.188 111.168 207.572 109.865 207.572 108.289C207.572 106.576 208.188 105.273 209.488 104.245C210.789 103.217 212.501 102.737 214.623 102.737C216.471 102.737 217.977 103.08 219.141 103.766V103.08C219.141 101.984 218.731 101.093 217.841 100.339C217.019 99.5848 215.992 99.2421 214.897 99.2421C213.185 99.2421 211.816 99.996 210.858 101.435L208.188 99.7219C209.625 97.3916 211.816 96.3635 214.76 96.3635ZM210.789 108.22C210.789 109.043 211.131 109.66 211.816 110.208C212.501 110.756 213.322 111.031 214.212 111.031C215.513 111.031 216.677 110.551 217.635 109.591C218.594 108.632 219.141 107.535 219.141 106.233C218.183 105.479 216.882 105.068 215.102 105.068C213.87 105.068 212.843 105.342 211.953 105.959C211.2 106.576 210.789 107.33 210.789 108.22Z" fill="white"/>
<path d="M234.066 113.772C232.833 113.772 231.738 113.498 230.78 113.018C229.821 112.538 229 111.853 228.52 110.962H228.384L228.52 113.224V120.42H225.44V96.8433H228.384V99.1051H228.52C229.068 98.2826 229.821 97.5973 230.78 97.049C231.738 96.5692 232.833 96.295 234.066 96.295C236.256 96.295 238.036 97.1175 239.543 98.8309C241.049 100.544 241.87 102.6 241.87 104.999C241.87 107.398 241.117 109.454 239.543 111.168C238.036 112.95 236.256 113.772 234.066 113.772ZM233.586 110.962C235.024 110.962 236.256 110.414 237.283 109.317C238.31 108.221 238.789 106.781 238.789 105.068C238.789 103.354 238.31 101.915 237.283 100.819C236.256 99.7219 235.024 99.1736 233.586 99.1736C232.08 99.1736 230.848 99.7219 229.821 100.819C228.863 101.915 228.384 103.354 228.384 105.068C228.384 106.781 228.863 108.221 229.821 109.317C230.848 110.414 232.08 110.962 233.586 110.962Z" fill="white"/>
<path d="M257 108.7C257 110.14 256.384 111.305 255.152 112.333C253.919 113.292 252.345 113.772 250.428 113.772C248.785 113.772 247.347 113.361 246.115 112.47C244.882 111.579 243.993 110.482 243.445 109.111L246.183 107.946C246.594 108.906 247.142 109.66 247.963 110.208C248.716 110.756 249.538 111.031 250.496 111.031C251.455 111.031 252.276 110.825 252.961 110.414C253.645 110.002 253.919 109.523 253.919 108.906C253.919 107.878 253.098 107.124 251.523 106.576L248.716 105.89C245.567 105.068 243.924 103.56 243.924 101.298C243.924 99.7904 244.54 98.6253 245.772 97.7343C247.005 96.8433 248.511 96.3635 250.428 96.3635C251.865 96.3635 253.166 96.7062 254.33 97.3916C255.494 98.077 256.315 99.0365 256.795 100.133L254.056 101.298C253.714 100.613 253.235 100.065 252.55 99.6533C251.865 99.2421 251.044 99.0365 250.222 99.0365C249.401 99.0365 248.716 99.2421 248.1 99.6533C247.484 100.065 247.142 100.544 247.142 101.093C247.142 102.052 248.032 102.669 249.812 103.08L252.276 103.697C255.357 104.588 257 106.233 257 108.7Z" fill="white"/>
</g>
<defs>
<clipPath id="clip0_219_237">
<rect width="257" height="120.489" fill="white"/>
</clipPath>
</defs>
</svg>
