<svg width="257" height="115" viewBox="0 0 257 115" fill="none" xmlns="http://www.w3.org/2000/svg">
<g clip-path="url(#clip0_219_189)">
<path d="M10.1321 46.9861V78.9941H0V0H26.9049C33.7509 0 39.5701 2.25697 44.3623 6.83932C49.223 11.4217 51.6191 16.9615 51.6191 23.5273C51.6191 30.2298 49.223 35.838 44.3623 40.2836C39.6385 44.7975 33.8194 46.9861 26.9049 46.9861H10.1321ZM10.1321 9.71183V37.2743H27.1103C31.1494 37.2743 34.504 35.9064 37.1739 33.1707C39.9124 30.435 41.2816 27.2205 41.2816 23.4589C41.2816 19.7656 39.9124 16.5511 37.1739 13.8838C34.504 11.0797 31.1494 9.71183 27.1103 9.71183H10.1321Z" fill="white"/>
<path d="M67.9127 78.9941H57.7122V24.9635H67.4335V33.7862H67.8443C68.8712 30.9137 70.9935 28.4516 74.2111 26.4682C77.4287 24.4164 80.5779 23.4589 83.6586 23.4589C86.6024 23.4589 89.1354 23.8692 91.1892 24.7583L88.1085 34.6069C86.8762 34.0598 84.8909 33.8546 82.1525 33.8546C78.3187 33.8546 74.9642 35.4277 72.1573 38.5054C69.3504 41.5831 67.9127 45.2079 67.9127 49.3115V78.9941Z" fill="white"/>
<path d="M106.114 24.8951V78.9257H95.9814V24.8951H106.114Z" fill="white"/>
<path d="M142.877 78.9941H132.745L110.906 24.9635H121.859L137.742 66.8885H137.948L154.036 24.9635H164.852L142.877 78.9941Z" fill="white"/>
<path d="M191.415 80.7039C183.474 80.7039 176.902 77.9682 171.767 72.5651C166.632 67.0937 164.031 60.2544 164.031 51.9104C164.031 43.7032 166.564 36.7955 171.562 31.3241C176.559 25.8526 182.995 23.1169 190.799 23.1169C198.809 23.1169 205.176 25.7158 209.968 30.9137C214.692 36.1116 217.088 43.3613 217.088 52.6627L216.951 53.757H174.437C174.574 59.0233 176.354 63.3321 179.708 66.5465C183.063 69.761 187.171 71.4025 191.826 71.4025C198.33 71.4025 203.396 68.188 207.093 61.6906L216.129 66.1362C213.733 70.7185 210.31 74.275 205.997 76.8055C201.753 79.4728 196.892 80.7039 191.415 80.7039ZM175.19 45.4131H206.203C205.929 41.6514 204.354 38.5737 201.616 36.1116C198.877 33.6494 195.18 32.4184 190.525 32.4184C186.691 32.4184 183.405 33.581 180.667 35.9748C177.928 38.3002 176.08 41.4463 175.19 45.4131Z" fill="white"/>
<path d="M233.723 78.9941H223.591V24.9635H233.313V33.7862H233.723C234.75 30.9137 236.873 28.4516 240.09 26.4682C243.308 24.4164 246.457 23.4589 249.538 23.4589C252.482 23.4589 255.015 23.8692 257.068 24.7583L253.988 34.6069C252.755 34.0598 250.77 33.8546 248.032 33.8546C244.198 33.8546 240.843 35.4277 238.036 38.5054C235.23 41.5831 233.792 45.2079 233.792 49.3115V78.9941H233.723Z" fill="white"/>
<path d="M238.105 102.59C238.105 105.941 237.147 108.608 235.161 110.592C232.97 112.917 230.027 114.148 226.398 114.148C222.907 114.148 219.963 112.917 217.567 110.523C215.171 108.13 213.938 105.189 213.938 101.632C213.938 98.1442 215.171 95.1349 217.567 92.7412C219.963 90.3474 222.907 89.1163 226.398 89.1163C228.178 89.1163 229.821 89.4583 231.396 90.0738C232.97 90.6894 234.203 91.5785 235.23 92.7412L233.039 94.9298C232.286 94.0406 231.327 93.3567 230.164 92.878C229 92.3992 227.767 92.1256 226.398 92.1256C223.797 92.1256 221.606 93.0147 219.758 94.793C217.978 96.6396 217.088 98.8966 217.088 101.632C217.088 104.368 217.978 106.625 219.758 108.472C221.538 110.25 223.728 111.139 226.398 111.139C228.794 111.139 230.78 110.455 232.354 109.156C233.929 107.856 234.819 106.009 235.093 103.684H226.398V100.812H237.968C238.037 101.427 238.105 101.974 238.105 102.59Z" fill="white"/>
<path d="M240.227 105.394C240.227 102.863 241.049 100.812 242.623 99.1702C244.198 97.5287 246.252 96.708 248.648 96.708C251.044 96.708 253.098 97.5287 254.672 99.1702C256.247 100.812 257.069 102.863 257.069 105.394C257.069 107.924 256.247 109.976 254.672 111.618C253.098 113.259 251.112 114.08 248.648 114.08C246.183 114.08 244.198 113.259 242.623 111.618C240.98 109.976 240.227 107.856 240.227 105.394ZM243.24 105.394C243.24 107.172 243.719 108.54 244.746 109.634C245.773 110.729 247.005 111.276 248.579 111.276C250.154 111.276 251.386 110.729 252.413 109.634C253.44 108.54 253.919 107.104 253.919 105.394C253.919 103.684 253.44 102.248 252.413 101.154C251.386 100.059 250.086 99.5121 248.579 99.5121C247.073 99.5121 245.841 100.059 244.746 101.154C243.787 102.248 243.24 103.616 243.24 105.394Z" fill="white"/>
<path d="M203.19 89.1163V112.986H193.058V89.1163H203.19Z" fill="#009FE3"/>
</g>
<defs>
<clipPath id="clip0_219_189">
<rect width="257" height="114.08" fill="white"/>
</clipPath>
</defs>
</svg>
