<svg width="258" height="100" viewBox="0 0 258 100" fill="none" xmlns="http://www.w3.org/2000/svg">
<g clip-path="url(#clip0_369_82)">
<path d="M10.1985 66.07V98.2517H0V18.761H27.0425C30.2705 18.6932 33.4799 19.2665 36.4853 20.4478C39.4908 21.6291 42.2329 23.3949 44.5531 25.6433C46.8929 27.7545 48.7555 30.3416 50.0165 33.2316C51.2775 36.1217 51.9078 39.2481 51.8653 42.4017C51.9322 45.5751 51.3135 48.7254 50.0514 51.6369C48.7893 54.5484 46.9137 57.1523 44.5531 59.2703C39.825 63.8034 33.9881 66.07 27.0425 66.07H10.1985ZM10.1985 28.5545V56.2696H27.2624C29.1384 56.3227 31.0049 55.9829 32.7421 55.2718C34.4794 54.5607 36.0492 53.4941 37.351 52.1402C38.6675 50.8804 39.7125 49.364 40.4216 47.6845C41.1308 46.0049 41.489 44.1977 41.4743 42.3742C41.4797 40.5714 41.1167 38.7866 40.4075 37.1296C39.6984 35.4726 38.6582 33.9784 37.351 32.739C36.064 31.3599 34.4989 30.2706 32.7596 29.5432C31.0204 28.8159 29.1465 28.4671 27.2624 28.5201L10.1985 28.5545Z" fill="white"/>
<path d="M68.1595 98.2242H57.961V43.854H67.7128V52.7184H68.1595C69.1903 49.837 71.3139 47.3777 74.5301 45.3405C77.3315 43.4336 80.6209 42.373 84.007 42.2848C86.5912 42.2125 89.163 42.6668 91.5666 43.62L88.4671 53.4961C87.2072 52.9822 85.212 52.723 82.4814 52.7184C78.6375 52.7184 75.2952 54.2738 72.4547 57.3846C69.677 60.3173 68.1466 64.2167 68.187 68.2586L68.1595 98.2242Z" fill="white"/>
<path d="M106.521 43.8403V98.2106H96.3084V43.8403H106.521Z" fill="white"/>
<path d="M143.404 98.2244H133.213L111.269 43.8541H122.327L138.312 86.0289H138.532L154.709 43.8403H165.574L143.404 98.2244Z" fill="white"/>
<path d="M192.17 99.9999C184.189 99.9999 177.612 97.263 172.44 91.7893C167.267 86.3156 164.681 79.3966 164.681 71.0323C164.681 62.746 167.201 55.8476 172.241 50.3371C177.28 44.8267 183.708 42.0738 191.524 42.0784C199.579 42.0784 205.993 44.6868 210.767 49.9036C215.541 55.1204 217.902 62.4225 217.852 71.81L217.742 72.918H175.099C175.251 78.2449 177.024 82.5372 180.419 85.7948C182.027 87.3768 183.932 88.6234 186.025 89.4622C188.118 90.301 190.356 90.7154 192.61 90.6813C199.111 90.6813 204.21 87.4236 207.908 80.9084L216.993 85.3406C214.675 89.8034 211.166 93.5344 206.856 96.1183C202.41 98.7387 197.329 100.082 192.17 99.9999ZM175.876 64.4872H207.021C206.914 62.6965 206.452 60.9451 205.663 59.3347C204.873 57.7244 203.772 56.2871 202.424 55.1066C199.647 52.629 195.934 51.3901 191.284 51.3901C187.653 51.3148 184.121 52.5787 181.36 54.9414C178.523 57.4237 176.593 60.7829 175.876 64.4872Z" fill="white"/>
<path d="M234.614 98.2243H224.422V43.854H234.174V52.7184H234.614C235.649 49.837 237.773 47.3778 240.984 45.3406C243.786 43.4344 247.075 42.3738 250.461 42.2849C253.045 42.2135 255.617 42.6677 258.021 43.62L254.894 53.4961C253.634 52.9823 251.641 52.723 248.915 52.7184C245.066 52.7184 241.722 54.2738 238.881 57.3847C236.104 60.3174 234.573 64.2167 234.614 68.2587V98.2243Z" fill="white"/>
<path d="M190.026 13.5237C190.026 16.8777 189.032 19.5504 187.043 21.5416C184.812 23.9092 181.875 25.0929 178.233 25.0929C176.59 25.1267 174.958 24.8229 173.436 24.2002C171.915 23.5776 170.538 22.6494 169.389 21.4728C168.205 20.3093 167.273 18.9148 166.65 17.3758C166.027 15.8368 165.727 14.186 165.767 12.5258C165.727 10.8657 166.028 9.21519 166.651 7.67628C167.274 6.13736 168.206 4.74279 169.389 3.5788C170.541 2.40969 171.92 1.4891 173.441 0.873638C174.962 0.258178 176.593 -0.0391307 178.233 -1.13831e-06C179.941 -0.00883046 181.634 0.308854 183.222 0.935993C184.699 1.50434 186.02 2.41469 187.078 3.59257L184.865 5.80179C184.09 4.89174 183.107 4.18328 181.999 3.73709C180.809 3.22919 179.527 2.97152 178.233 2.98004C176.999 2.96046 175.773 3.19466 174.632 3.66816C173.492 4.14166 172.46 4.84441 171.601 5.73296C170.716 6.64085 170.022 7.71824 169.561 8.90075C169.101 10.0833 168.883 11.3466 168.921 12.6153C168.885 13.8838 169.103 15.1467 169.564 16.3289C170.024 17.5112 170.717 18.5888 171.601 19.4976C172.463 20.379 173.497 21.0743 174.637 21.5407C175.778 22.007 177.001 22.2346 178.233 22.2092C180.401 22.2618 182.514 21.5231 184.178 20.1308C184.976 19.4399 185.63 18.5977 186.101 17.6528C186.573 16.7079 186.854 15.6788 186.927 14.6249H178.233V11.6999H189.861C189.969 12.3019 190.024 12.9122 190.026 13.5237Z" fill="white"/>
<path d="M195.654 24.5559H192.569V8.12095H195.517V10.8051H195.654C196.023 9.86342 196.702 9.07646 197.579 8.57518C198.425 7.99684 199.42 7.67433 200.444 7.64607C201.224 7.62673 202 7.76482 202.726 8.05213L201.785 11.0115C201.202 10.8347 200.592 10.7648 199.984 10.8051C199.41 10.8027 198.842 10.9245 198.319 11.162C197.796 11.3996 197.33 11.7473 196.953 12.1815C196.112 13.068 195.648 14.2481 195.661 15.4713L195.654 24.5559Z" fill="white"/>
<path d="M219.137 24.5561H216.189V22.278H216.058C215.533 23.133 214.785 23.8279 213.894 24.2876C212.969 24.8123 211.925 25.0896 210.863 25.0929C208.849 25.0929 207.303 24.5216 206.224 23.3654C205.145 22.2092 204.595 20.5781 204.595 18.4514V8.12798H207.681V18.2519C207.75 20.936 209.097 22.278 211.736 22.278C212.329 22.2842 212.916 22.1525 213.45 21.8934C213.984 21.6343 214.451 21.2548 214.814 20.7845C215.645 19.7799 216.086 18.5096 216.058 17.2057V8.12109H219.137V24.5561Z" fill="white"/>
<path d="M231.432 25.0928C230.286 25.1081 229.154 24.8435 228.133 24.3219C227.194 23.8565 226.4 23.1424 225.838 22.2572H225.707L225.838 24.5353V31.803H222.759V8.12097H225.707V10.399H225.838C226.402 9.51565 227.196 8.80212 228.133 8.33432C229.587 7.60697 231.242 7.38665 232.836 7.70831C234.429 8.02998 235.87 8.8752 236.93 10.11C238.456 11.8062 239.282 14.0207 239.239 16.304C239.287 18.5883 238.461 20.8044 236.93 22.4981C236.264 23.3134 235.425 23.9695 234.474 24.4184C233.523 24.8674 232.483 25.0977 231.432 25.0928ZM230.909 22.2779C231.614 22.2878 232.312 22.1425 232.955 21.8524C233.597 21.5622 234.168 21.1342 234.627 20.5986C235.66 19.4266 236.199 17.8999 236.132 16.3385C236.19 14.7783 235.652 13.2547 234.627 12.0783C234.159 11.5499 233.583 11.127 232.94 10.8373C232.296 10.5477 231.598 10.3979 230.892 10.3979C230.186 10.3979 229.489 10.5477 228.845 10.8373C228.201 11.127 227.626 11.5499 227.157 12.0783C226.15 13.263 225.625 14.7838 225.686 16.3385C225.624 17.9114 226.157 19.45 227.178 20.6468C227.646 21.1714 228.222 21.5886 228.866 21.8701C229.51 22.1516 230.207 22.2907 230.909 22.2779Z" fill="white"/>
<path d="M241.115 16.3385C241.077 15.1867 241.267 14.0388 241.675 12.9614C242.083 11.8839 242.701 10.8984 243.493 10.0618C244.276 9.24995 245.219 8.61036 246.263 8.18378C247.306 7.7572 248.427 7.553 249.554 7.58417C250.677 7.55046 251.794 7.75362 252.834 8.18046C253.873 8.6073 254.812 9.24829 255.588 10.0618C256.388 10.8935 257.014 11.8775 257.428 12.9556C257.843 14.0336 258.037 15.1839 258 16.3385C258.041 17.4935 257.849 18.645 257.435 19.7237C257.02 20.8024 256.392 21.7859 255.588 22.6151C254.812 23.4287 253.873 24.0696 252.834 24.4965C251.794 24.9233 250.677 25.1265 249.554 25.0928C248.427 25.1239 247.306 24.9197 246.263 24.4932C245.219 24.0666 244.276 23.427 243.493 22.6151C242.701 21.7786 242.083 20.793 241.675 19.7156C241.267 18.6381 241.077 17.4902 241.115 16.3385ZM244.194 16.3385C244.12 17.9228 244.676 19.4717 245.74 20.6468C246.231 21.1664 246.823 21.5803 247.479 21.8631C248.136 22.146 248.843 22.2919 249.557 22.2919C250.272 22.2919 250.979 22.146 251.635 21.8631C252.292 21.5803 252.884 21.1664 253.375 20.6468C254.433 19.4741 254.986 17.9309 254.914 16.3522C254.981 14.7846 254.428 13.2538 253.375 12.0921C252.89 11.5624 252.3 11.1396 251.642 10.8503C250.985 10.5611 250.275 10.4117 249.557 10.4117C248.84 10.4117 248.13 10.5611 247.472 10.8503C246.815 11.1396 246.225 11.5624 245.74 12.0921C244.688 13.2493 244.132 14.7746 244.194 16.3385Z" fill="white"/>
<path d="M154.97 0V24.0193H144.772V0H154.97Z" fill="#009FE3"/>
<path d="M134.58 0V24.0193H124.389V0H134.58Z" fill="#9747FF"/>
<path d="M114.19 0V24.0193H103.992V0H114.19Z" fill="#D1111C"/>
<path d="M93.7932 0V24.0193H83.6016V0H93.7932Z" fill="#FBBB0C"/>
<path d="M73.2587 0V24.0193H63.0602V0H73.2587Z" fill="#009649"/>
</g>
<defs>
<clipPath id="clip0_369_82">
<rect width="258" height="100" fill="white"/>
</clipPath>
</defs>
</svg>
